<svg xmlns="http://www.w3.org/2000/svg" viewBox="0 0 228.14 391.17"><defs><style>.cls-1{fill:#c49a6c;}.cls-2{fill:#9b8579;}.cls-3{fill:#231f20;}.cls-3,.cls-4{stroke:#231f20;stroke-miterlimit:10;}.cls-4{fill:#fff;}</style></defs><g id="Layer_2" data-name="Layer 2"><g id="Layer_1-2" data-name="Layer 1"><circle class="cls-1" cx="111.29" cy="90.71" r="81.86"/><ellipse class="cls-1" cx="113.51" cy="252.13" rx="81.86" ry="106.83"/><ellipse class="cls-2" cx="113.51" cy="262.95" rx="51.18" ry="66.79"/><ellipse class="cls-1" cx="199.06" cy="231.03" rx="26.05" ry="34" transform="translate(-98.08 162.41) rotate(-36.25)"/><ellipse class="cls-1" cx="29.43" cy="237.61" rx="34" ry="26.05" transform="translate(-174.25 111.75) rotate(-51.23)"/><ellipse class="cls-1" cx="74.09" cy="358.96" rx="34" ry="26.05" transform="translate(-252.16 191.92) rotate(-51.23)"/><ellipse class="cls-1" cx="165.27" cy="358.96" rx="26.05" ry="34" transform="translate(-157.34 130.73) rotate(-30)"/><circle class="cls-1" cx="177.84" cy="30.51" r="28.06"/><circle class="cls-3" cx="137.79" cy="69.51" r="10.5"/><circle class="cls-3" cx="111.29" cy="96.27" r="5.56"/><circle class="cls-4" cx="131.16" cy="69.51" r="4.45"/><circle class="cls-3" cx="87.13" cy="69.51" r="10.5"/><circle class="cls-4" cx="93.17" cy="69.51" r="4.45"/><circle class="cls-1" cx="41.43" cy="27.15" r="27.15"/></g></g></svg>